<svg xmlns="http://www.w3.org/2000/svg" viewBox="0 0 32 32" width="32" height="32">
  <defs>
    <linearGradient id="grad" x1="0%" y1="0%" x2="100%" y2="100%">
      <stop offset="0%" stop-color="#38bdf8" />
      <stop offset="100%" stop-color="#2563eb" />
    </linearGradient>
  </defs>
  <!-- Background Rounded Rect -->
  <rect width="32" height="32" rx="8" fill="url(#grad)" />
  <!-- Document Shape -->
  <path d="M9 7h10l5 5v13a2 2 0 0 1-2 2H9a2 2 0 0 1-2-2V9a2 2 0 0 1 2-2z" fill="#ffffff" />
  <!-- Document lines -->
  <rect x="10" y="11" width="5" height="1.5" rx="0.5" fill="url(#grad)" />
  <rect x="10" y="14" width="12" height="1.5" rx="0.5" fill="#94a3b8" />
  <rect x="10" y="17" width="12" height="1.5" rx="0.5" fill="#94a3b8" />
  <rect x="10" y="20" width="8" height="1.5" rx="0.5" fill="#94a3b8" />
  <!-- Success Badge -->
  <circle cx="21" cy="21" r="3.5" fill="#10b981" />
  <path d="M19.5 21l1 1 1.5-1.5" stroke="#ffffff" stroke-width="1" stroke-linecap="round" stroke-linejoin="round" fill="none" />
</svg>